<?xml version="1.0" encoding="UTF-8"?>
<svg id="a57b1084-392d-4dd3-9105-7399e5d250c4" xmlns="http://www.w3.org/2000/svg" viewBox="0 0 567.62 712.04">
  <defs>
    <style>
      .cls-1 {
        fill: #394553;
      }
    </style>
  </defs>
  <path class="cls-1" d="m72.32,712.04C32.38,712.04,0,679.66,0,639.72V72.34C0,32.39,32.36,0,72.3,0c14.36,0,28.39,4.27,40.31,12.27l422.97,283.68c33.17,22.27,42.02,67.21,19.75,100.38-5.24,7.81-11.95,14.52-19.75,19.75L112.62,699.76h0c-11.91,8.01-25.94,12.28-40.3,12.27Zm24.37-36.02h0ZM72.43,57.09c-2.53.03-5.01.66-7.25,1.83-5,2.59-8.12,7.78-8.05,13.42v567.36c0,8.38,6.78,15.18,15.16,15.19,3.02,0,5.97-.89,8.47-2.57l422.99-283.68c4.22-2.81,6.75-7.56,6.72-12.64.07-5.07-2.47-9.81-6.72-12.57L80.78,59.72c-2.45-1.69-5.36-2.61-8.34-2.63Z"/>
</svg>